# xmcd
#
# Track frame offsets:
#	150
#	22532
#	47412
#	66419
#	90510
#	109925
#	133224
#	158404
#	180829
#	200543
#	221926
#	241117
#	258805
#	277912
#	297471
#	319119
#
# Disc length: 4498 seconds
#
# Revision: 0
# Processed by: cddbd v1.5.2PL0 Copyright (c) Steve Scherf et al.
# Submitted via: dBpowerAMP V4.0
#
DISCID=d8119010
DTITLE=isoisooo - issssis
DYEAR=1900
DGENRE=Acid
TTITLE0=iso
TTITLE1=iso
TTITLE2=iso
TTITLE3=iso
TTITLE4=iso
TTITLE5=iso
TTITLE6=iso
TTITLE7=iso
TTITLE8=iso
TTITLE9=is
TTITLE10=iso
TTITLE11=iso
TTITLE12=isoi
TTITLE13=iso
TTITLE14=iso
TTITLE15=iso
EXTD=
EXTT0=
EXTT1=
EXTT2=
EXTT3=
EXTT4=
EXTT5=
EXTT6=
EXTT7=
EXTT8=
EXTT9=
EXTT10=
EXTT11=
EXTT12=
EXTT13=
EXTT14=
EXTT15=
PLAYORDER=
